# xmcd
#
# Track frame offsets:
#   150
#   12150
#   30460
#   52115
#   67097
#   82460
#   97957
#   110022
#   127377
#   145025
#   162317
#   181467
#   190460
#   206587
#
# Disc length: 2955 seconds
#
# Revision: 0
# Processed by: cddbd v1.5.1PL0 Copyright (c) Steve Scherf et al.
# Submitted via: uFREEDB 1.6.0
#
DISCID=d50b890e
DTITLE=Eduardo Dusek - Gold
DYEAR=1900
DGENRE=MPB
TTITLE0=Nostradamus
TTITLE1=Cabelos Negros
TTITLE2=Barrados no Baile
TTITLE3=Aventura
TTITLE4=Folia no Matagal
TTITLE5=Destino de Aventureiro
TTITLE6=Cantando no Banheiro
TTITLE7=Eu Velejava em Você
TTITLE8=Ele Não Sabia de Nada
TTITLE9=Olhar Brasileiro
TTITLE10=Brega-chique
TTITLE11=Injuriado
TTITLE12=Serra da Boa Esperança
TTITLE13=Rock da Cachorra
EXTD=
EXTT0=
EXTT1=
EXTT2=
EXTT3=
EXTT4=
EXTT5=
EXTT6=
EXTT7=
EXTT8=
EXTT9=
EXTT10=
EXTT11=
EXTT12=
EXTT13=
PLAYORDER=
